<svg fill="#000" xmlns="http://www.w3.org/2000/svg" xmlns:xlink="http://www.w3.org/1999/xlink" version="1.1" id="Layer_1" x="0px" y="0px" viewBox="-380 0 2200 900" enable-background="new -380 0 2200 900" xml:space="preserve">
	<path d="M647.972 661.807c-16.973 3.289-34.05 5.064-51.092 5.064 -0.004 0-0.008 0-0.012 0 -11.742 0-23.509-0.817-35.021-2.427l-231.35-237.519c-9.955-88.058 27.198-180.235 102.228-253.311 63.647-61.993 142.103-96.132 220.919-96.132 71.753 0 137.213 28.266 189.303 81.744 54.89 56.354 81.89 129.183 76.021 205.079 -1.112 14.376-3.398 28.703-6.747 42.884h16.641c3.07-13.777 5.206-27.68 6.286-41.635 6.229-80.612-22.385-157.907-80.579-217.65 -55.209-56.69-124.689-86.655-200.924-86.655 -83.071 0-165.547 35.778-232.245 100.735 -79.459 77.396-118.347 175.672-106.689 269.624l0.336 2.71 6.844 7.026c36.619 124.807 23.821 134.478-124.435 245.803 -13.712 10.294-28.541 21.434-44.369 33.444 -2.815 2.014-4.551 5.206-4.89 8.992 -1.432 16.042 23.865 48.373 41.218 66.191 17.025 17.482 47.819 42.978 64.161 42.973 0.311 0 0.623-0.008 0.922-0.028 3.79-0.239 7.03-1.889 8.976-4.47 12.564-15.686 24.088-30.22 34.742-43.657C413.401 645.32 423.405 632.781 547.208 672.68l6.836 7.022 2.698 0.409c13.162 1.986 26.66 2.993 40.122 2.997 0.008 0 0.004 0 0.012 0 17.049 0 34.123-1.671 51.092-4.773v-16.528H647.972zM285.492 780.514c-10.205 12.875-21.216 26.757-33.298 41.861 -6.99-1.509-28.189-14.343-51.156-37.925 -22.963-23.582-35.24-45.105-36.562-52.131 15.314-11.609 29.536-22.288 42.723-32.19 138.786-104.214 166.227-124.932 138.175-234.667L523.715 648.56C414.756 617.625 393.326 644.511 285.492 780.514z"/>
		<path d="M780.177 444.82h59.412c34.738 0 57.24 17.964 57.24 48.361v0.392c0 32.772-25.071 49.939-59.214 49.939h-19.149v39.475h-38.293V444.82H780.177zM836.826 513.512c13.425 0 21.911-7.305 21.911-18.162v-0.392c0-11.844-8.486-17.964-22.106-17.964h-18.158v36.518H836.826zM923.898 444.82h38.293v138.167h-38.293V444.82zM997.338 444.82h35.725l56.848 73.035V444.82h37.897v138.167h-33.359l-59.214-75.794v75.794h-37.897L997.338 444.82 997.338 444.82zM1157.643 514.3v-0.396c0-40.263 31.583-71.842 74.213-71.842 24.282 0 41.453 7.301 56.059 19.934l-22.502 27.243c-9.87-8.296-19.541-13.029-33.359-13.029 -19.938 0-35.333 16.58-35.333 37.699v0.396c0 22.502 15.593 38.488 37.505 38.488 9.473 0 16.58-1.974 22.106-5.724V530.29h-27.04v-28.031h63.36v61.981c-14.606 12.236-34.738 21.511-60.003 21.511C1189.622 585.75 1157.643 556.145 1157.643 514.3zM680.679 606.889h59.412c34.738 0 57.24 17.964 57.24 48.361v0.392c0 32.772-25.071 49.939-59.214 49.939h-19.149v39.475h-38.293V606.889H680.679zM737.325 675.581c13.425 0 21.911-7.305 21.911-18.162v-0.392c0-11.844-8.486-17.964-22.106-17.964h-18.158v36.518H737.325zM818.875 676.369v-0.396c0-39.673 31.975-71.842 74.613-71.842 42.634 0 74.213 31.777 74.213 71.454v0.392c0 39.673-31.975 71.85-74.613 71.85C850.453 747.823 818.875 716.046 818.875 676.369zM928.42 676.369v-0.396c0-20.132-14.214-37.302-35.333-37.302 -21.119 0-35.134 16.969-35.134 36.91v0.392c0 19.938 14.408 37.307 35.531 37.307C914.408 713.279 928.42 696.303 928.42 676.369zM997.338 606.889h35.725l56.848 73.036v-73.036h37.897v138.167h-33.359l-59.214-75.794v75.794h-37.897L997.338 606.889 997.338 606.889zM1157.643 676.369v-0.396c0-40.263 31.583-71.842 74.213-71.842 24.282 0 41.453 7.301 56.059 19.933l-22.502 27.239c-9.87-8.296-19.541-13.029-33.359-13.029 -19.938 0-35.333 16.58-35.333 37.699v0.396c0 22.502 15.593 38.488 37.505 38.488 9.473 0 16.58-1.974 22.106-5.724v-16.778h-27.04v-28.031h63.36v61.981c-14.606 12.236-34.738 21.511-60.003 21.511C1189.622 747.823 1157.643 718.214 1157.643 676.369z"/>
		<path d="M586.772 539.836c-27.255 0.008-35.624-59.954-45.287-129.187 -7.617-54.578-17.102-122.501-37.513-122.501 -17.81 0-27.227 34.111-36.328 67.102 -10.448 37.861-21.252 77.012-47.666 77.012 -21.851 0-32.841-29.5-44.47-60.735 -10.622-28.513-21.6-58-39.523-58 -16.766 0-30.159 22.316-43.107 43.9 -12.313 20.52-23.938 39.899-39.81 44.272 -20.063 5.55-35.494-11.124-50.408-27.231 -11.099-11.985-22.579-24.379-35.624-27.558 -12.086-2.953-24.618 6.484-37.893 16.463 -13.866 10.424-28.201 21.204-45.142 21.204H-380v-8.114H83.997c14.23 0 27.465-9.951 40.263-19.573 14.198-10.675 28.873-21.705 44.693-17.862 15.419 3.758 27.74 17.062 39.657 29.933 13.878 14.982 26.992 29.14 42.302 24.921 12.738-3.511 24.059-22.381 35.009-40.627 14.113-23.517 28.703-47.84 50.064-47.84 23.562 0 35.543 32.169 47.128 63.283 10.153 27.267 20.654 55.452 36.87 55.452 20.233 0 30.204-36.121 39.843-71.058 10.367-37.569 20.16-73.06 44.151-73.06 27.473 0 35.85 60.011 45.55 129.495 7.702 55.161 17.405 123.961 38.124 122.157 22.292-1.764 30.107-88.261 36.999-164.577 8.523-94.365 15.884-175.862 47.318-175.862 25.908 0 36.057 53.79 46.804 110.742 9.008 47.738 19.222 101.848 37.65 103.947 18.773 2.12 29.864-26.47 40.595-54.125 11.2-28.865 21.782-56.136 42.476-58.538 22.979-2.698 36.534 29.2 49.591 60.023 10.606 25.034 21.572 50.922 35.373 52.645 14.254 1.788 26.308-15.824 39.07-34.467 12.729-18.591 25.892-37.82 43.795-40.623 19.104-2.985 33.553 15.577 47.528 33.533 11.714 15.047 23.825 30.612 37.549 32.157 15.197 1.715 28.537-8.943 42.65-20.229 12.353-9.878 25.131-20.095 40.219-22.619 15.387-2.593 27.68 3.519 40.696 9.971 12.701 6.298 25.835 12.806 43.973 12.806H1820v8.114h-560.069c-20.039 0-34.665-7.253-47.573-13.652 -12.317-6.112-22.955-11.378-35.749-9.235 -13.009 2.18-24.949 11.726-36.498 20.953 -14.788 11.823-30.09 24.051-48.624 21.96 -17.122-1.929-30.301-18.866-43.046-35.24 -13.106-16.843-25.491-32.784-39.867-30.499 -14.44 2.257-26.6 20.014-38.354 37.185 -13.575 19.828-27.647 40.381-46.772 37.938 -18.445-2.302-29.807-29.128-41.841-57.531 -11.896-28.072-24.201-57.09-41.186-55.129 -15.828 1.84-26.005 28.056-35.846 53.414 -11.844 30.527-24.084 62.183-49.073 59.25 -24.379-2.771-34.253-55.1-44.709-110.504 -9.21-48.81-19.646-104.129-38.831-104.129 -24.019 0-32.457 93.418-39.236 168.48 -8.223 91.019-15.322 169.629-44.438 171.934C587.779 539.816 587.269 539.836 586.772 539.836z"/>
	</svg>